{"glyphs":{"0":{"ha":696,"x_min":0,"x_max":696,"o":"m 460.0 365.2 l 460.0 365.2 q 460.0 502.0 434.3 557.9 q 408.7 613.8 348.1 613.8 l 348.1 613.8 q 287.6 613.8 261.7 557.9 q 235.8 502.0 235.8 365.2 l 235.8 365.2 q 235.8 227.1 261.7 170.4 q 287.6 113.8 348.1 113.8 l 348.1 113.8 q 408.2 113.8 434.1 170.4 q 460.0 227.1 460.0 365.2 m 647.9 363.8 l 647.9 363.8 q 647.9 182.6 569.8 84.2 q 491.7 -14.2 348.1 -14.2 l 348.1 -14.2 q 204.1 -14.2 126.0 84.2 q 47.9 182.6 47.9 363.8 l 47.9 363.8 q 47.9 545.4 126.0 643.8 q 204.1 742.2 348.1 742.2 l 348.1 742.2 q 491.7 742.2 569.8 643.8 q 647.9 545.4 647.9 363.8"},"1":{"ha":696,"x_min":0,"x_max":696,"o":"m 117.2 0.0 l 117.2 129.9 l 283.2 129.9 l 283.2 601.1 l 112.8 565.9 l 112.8 693.8 l 282.2 729.0 l 460.9 729.0 l 460.9 129.9 l 627.0 129.9 l 627.0 0.0 l 117.2 0.0"},"2":{"ha":696,"x_min":0,"x_max":696,"o":"m 443.8 274.9 l 288.1 138.2 l 608.9 138.2 l 608.9 0.0 l 79.1 0.0 l 79.1 138.2 l 345.2 373.0 q 380.9 405.3 397.9 436.0 q 415.0 466.8 415.0 500.0 l 415.0 500.0 q 415.0 551.3 380.6 582.5 q 346.2 613.8 289.1 613.8 l 289.1 613.8 q 245.1 613.8 192.9 595.0 q 140.6 576.2 81.1 539.1 l 81.1 539.1 l 81.1 699.2 q 144.5 720.2 206.5 731.2 q 268.6 742.2 328.1 742.2 l 328.1 742.2 q 459.0 742.2 531.5 684.6 q 604.0 627.0 604.0 523.9 l 604.0 523.9 q 604.0 464.4 573.2 412.8 q 542.5 361.3 443.8 274.9 l 443.8 274.9"},"3":{"ha":696,"x_min":0,"x_max":696,"o":"m 465.8 393.1 l 465.8 393.1 q 539.6 374.0 577.9 326.9 q 616.2 279.8 616.2 207.0 l 616.2 207.0 q 616.2 98.6 533.2 42.2 q 450.2 -14.2 291.0 -14.2 l 291.0 -14.2 q 234.9 -14.2 178.5 -5.1 q 122.1 3.9 66.9 22.0 l 66.9 22.0 l 66.9 167.0 q 119.6 140.6 171.6 127.2 q 223.6 113.8 273.9 113.8 l 273.9 113.8 q 348.6 113.8 388.4 139.6 q 428.2 165.5 428.2 213.9 l 428.2 213.9 q 428.2 263.7 387.5 289.3 q 346.7 314.9 267.1 314.9 l 267.1 314.9 l 191.9 314.9 l 191.9 436.0 l 271.0 436.0 q 341.8 436.0 376.5 458.3 q 411.1 480.5 411.1 525.9 l 411.1 525.9 q 411.1 567.9 377.4 590.8 q 343.8 613.8 282.2 613.8 l 282.2 613.8 q 236.8 613.8 190.4 603.5 q 144.0 593.3 98.1 573.2 l 98.1 573.2 l 98.1 710.9 q 153.8 726.6 208.5 734.4 q 263.2 742.2 315.9 742.2 l 315.9 742.2 q 458.0 742.2 528.6 695.6 q 599.1 648.9 599.1 555.2 l 599.1 555.2 q 599.1 491.2 565.4 450.4 q 531.7 409.7 465.8 393.1"},"4":{"ha":696,"x_min":0,"x_max":696,"o":"m 368.2 269.0 l 368.2 574.2 l 162.1 269.0 l 368.2 269.0 m 44.9 293.9 l 336.9 729.0 l 545.9 729.0 l 545.9 269.0 l 649.9 269.0 l 649.9 132.8 l 545.9 132.8 l 545.9 0.0 l 368.2 0.0 l 368.2 132.8 l 44.9 132.8 l 44.9 293.9"},"5":{"ha":696,"x_min":0,"x_max":696,"o":"m 106.0 318.8 l 106.0 729.0 l 573.2 729.0 l 573.2 590.8 l 255.9 590.8 l 255.9 478.0 q 277.3 483.9 299.1 487.1 q 320.8 490.2 344.2 490.2 l 344.2 490.2 q 477.5 490.2 551.8 423.6 q 626.0 356.9 626.0 237.8 l 626.0 237.8 q 626.0 119.6 545.2 52.7 q 464.4 -14.2 320.8 -14.2 l 320.8 -14.2 q 258.8 -14.2 198.0 -2.2 q 137.2 9.8 77.1 34.2 l 77.1 34.2 l 77.1 182.1 q 136.7 147.9 190.2 130.9 q 243.7 113.8 291.0 113.8 l 291.0 113.8 q 359.4 113.8 398.7 147.2 q 438.0 180.7 438.0 237.8 l 438.0 237.8 q 438.0 295.4 398.7 328.6 q 359.4 361.8 291.0 361.8 l 291.0 361.8 q 250.5 361.8 204.6 351.3 q 158.7 340.8 106.0 318.8 l 106.0 318.8"},"6":{"ha":696,"x_min":0,"x_max":696,"o":"m 361.8 359.9 l 361.8 359.9 q 312.5 359.9 287.8 327.9 q 263.2 295.9 263.2 231.9 l 263.2 231.9 q 263.2 168.0 287.8 136.0 q 312.5 104.0 361.8 104.0 l 361.8 104.0 q 411.6 104.0 436.3 136.0 q 460.9 168.0 460.9 231.9 l 460.9 231.9 q 460.9 295.9 436.3 327.9 q 411.6 359.9 361.8 359.9 m 594.2 710.0 l 594.2 710.0 l 594.2 575.2 q 547.9 597.2 506.8 607.7 q 465.8 618.2 426.8 618.2 l 426.8 618.2 q 342.8 618.2 295.9 571.5 q 249.0 524.9 241.2 433.1 l 241.2 433.1 q 273.4 457.0 311.0 469.0 q 348.6 481.0 393.1 481.0 l 393.1 481.0 q 504.9 481.0 573.5 415.5 q 642.1 350.1 642.1 244.1 l 642.1 244.1 q 642.1 127.0 565.4 56.4 q 488.8 -14.2 359.9 -14.2 l 359.9 -14.2 q 217.8 -14.2 139.9 81.8 q 62.0 177.7 62.0 354.0 l 62.0 354.0 q 62.0 534.7 153.1 637.9 q 244.1 741.2 402.8 741.2 l 402.8 741.2 q 453.1 741.2 500.5 733.4 q 547.9 725.6 594.2 710.0"},"7":{"ha":696,"x_min":0,"x_max":696,"o":"m 66.9 590.8 l 66.9 729.0 l 616.2 729.0 l 616.2 623.0 l 332.0 0.0 l 148.9 0.0 l 418.0 590.8 l 66.9 590.8"},"8":{"ha":696,"x_min":0,"x_max":696,"o":"m 348.1 326.2 l 348.1 326.2 q 295.4 326.2 267.1 297.4 q 238.8 268.6 238.8 214.8 l 238.8 214.8 q 238.8 161.1 267.1 132.6 q 295.4 104.0 348.1 104.0 l 348.1 104.0 q 400.4 104.0 428.2 132.6 q 456.1 161.1 456.1 214.8 l 456.1 214.8 q 456.1 269.0 428.2 297.6 q 400.4 326.2 348.1 326.2 m 210.9 388.2 l 210.9 388.2 q 144.5 408.2 110.8 449.7 q 77.1 491.2 77.1 553.2 l 77.1 553.2 q 77.1 645.5 146.0 693.8 q 214.8 742.2 348.1 742.2 l 348.1 742.2 q 480.5 742.2 549.3 694.1 q 618.2 646.0 618.2 553.2 l 618.2 553.2 q 618.2 491.2 584.2 449.7 q 550.3 408.2 483.9 388.2 l 483.9 388.2 q 558.1 367.7 595.9 321.5 q 633.8 275.4 633.8 205.1 l 633.8 205.1 q 633.8 96.7 561.8 41.3 q 489.7 -14.2 348.1 -14.2 l 348.1 -14.2 q 206.1 -14.2 133.5 41.3 q 61.0 96.7 61.0 205.1 l 61.0 205.1 q 61.0 275.4 98.9 321.5 q 136.7 367.7 210.9 388.2 m 254.9 534.2 l 254.9 534.2 q 254.9 490.7 279.1 467.3 q 303.2 443.8 348.1 443.8 l 348.1 443.8 q 392.1 443.8 416.0 467.3 q 439.9 490.7 439.9 534.2 l 439.9 534.2 q 439.9 577.6 416.0 600.8 q 392.1 624.0 348.1 624.0 l 348.1 624.0 q 303.2 624.0 279.1 600.6 q 254.9 577.1 254.9 534.2"},"9":{"ha":696,"x_min":0,"x_max":696,"o":"m 100.1 16.1 l 100.1 16.1 l 100.1 150.9 q 145.0 129.9 186.0 119.4 q 227.1 108.9 267.1 108.9 l 267.1 108.9 q 351.1 108.9 397.9 155.5 q 444.8 202.1 453.1 293.9 l 453.1 293.9 q 419.9 269.5 382.3 257.3 q 344.7 245.1 300.8 245.1 l 300.8 245.1 q 189.0 245.1 120.4 310.3 q 51.8 375.5 51.8 481.9 l 51.8 481.9 q 51.8 599.6 128.2 670.4 q 204.6 741.2 333.0 741.2 l 333.0 741.2 q 475.6 741.2 553.7 645.0 q 631.8 548.8 631.8 373.0 l 631.8 373.0 q 631.8 192.4 540.5 89.1 q 449.2 -14.2 290.0 -14.2 l 290.0 -14.2 q 238.8 -14.2 191.9 -6.6 q 145.0 1.0 100.1 16.1 m 332.0 367.2 l 332.0 367.2 q 381.3 367.2 406.3 399.2 q 431.2 431.2 431.2 495.1 l 431.2 495.1 q 431.2 558.6 406.3 590.8 q 381.3 623.0 332.0 623.0 l 332.0 623.0 q 282.7 623.0 257.8 590.8 q 232.9 558.6 232.9 495.1 l 232.9 495.1 q 232.9 431.2 257.8 399.2 q 282.7 367.2 332.0 367.2"},"А":{"ha":774,"x_min":0,"x_max":774,"o":"m 580.1 0.0 l 534.2 132.8 l 240.2 132.8 l 193.8 0.0 l 4.9 0.0 l 274.9 729.0 l 499.0 729.0 l 769.0 0.0 l 580.1 0.0 m 387.2 558.1 l 287.1 268.1 l 486.8 268.1 l 387.2 558.1"},"Б":{"ha":762,"x_min":0,"x_max":762,"o":"m 279.8 127.9 l 390.1 127.9 q 449.2 127.9 475.6 149.9 l 475.6 149.9 q 503.9 173.8 503.9 219.2 l 503.9 219.2 q 503.9 263.7 475.6 287.1 l 475.6 287.1 q 449.7 309.1 390.1 309.1 l 390.1 309.1 l 279.8 309.1 l 279.8 127.9 m 403.8 0.0 l 403.8 0.0 l 91.8 0.0 l 91.8 729.0 l 643.1 729.0 l 643.1 586.9 l 279.8 586.9 l 279.8 451.2 l 403.8 451.2 q 542.0 451.2 620.6 394.0 l 620.6 394.0 q 691.9 342.3 691.9 225.1 l 691.9 225.1 q 691.9 108.9 620.6 57.1 l 620.6 57.1 q 542.0 0.0 403.8 0.0"},"В":{"ha":762,"x_min":0,"x_max":762,"o":"m 279.8 446.8 l 383.8 446.8 q 428.2 446.8 451.2 466.3 q 474.1 485.8 474.1 523.9 l 474.1 523.9 q 474.1 561.5 451.2 581.3 q 428.2 601.1 383.8 601.1 l 383.8 601.1 l 279.8 601.1 l 279.8 446.8 m 279.8 127.9 l 390.1 127.9 q 446.8 127.9 475.3 151.9 q 503.9 175.8 503.9 224.1 l 503.9 224.1 q 503.9 271.5 475.6 295.2 q 447.3 318.8 390.1 318.8 l 390.1 318.8 l 279.8 318.8 l 279.8 127.9 m 564.9 390.1 l 564.9 390.1 q 625.5 372.6 658.7 325.2 q 691.9 277.8 691.9 209.0 l 691.9 209.0 q 691.9 103.5 620.6 51.8 q 549.3 0.0 403.8 0.0 l 403.8 0.0 l 91.8 0.0 l 91.8 729.0 l 374.0 729.0 q 525.9 729.0 594.0 683.1 q 662.1 637.2 662.1 536.1 l 662.1 536.1 q 662.1 482.9 637.2 445.6 q 612.3 408.2 564.9 390.1"},"Г":{"ha":637,"x_min":0,"x_max":637,"o":"m 279.8 0.0 l 91.8 0.0 l 91.8 729.0 l 609.9 729.0 l 609.9 586.9 l 279.8 586.9 l 279.8 0.0"},"Д":{"ha":891,"x_min":0,"x_max":891,"o":"m 336.4 142.1 l 336.4 142.1 l 539.6 142.1 l 539.6 586.9 l 381.8 586.9 l 381.8 542.5 q 381.8 230.0 336.4 142.1 m 60.1 142.1 l 114.7 142.1 q 165.5 175.8 179.7 225.3 q 193.8 274.9 193.8 591.3 l 193.8 591.3 l 193.8 729.0 l 727.5 729.0 l 727.5 142.1 l 830.6 142.1 l 830.6 -156.7 l 688.5 -156.7 l 688.5 0.0 l 202.1 0.0 l 202.1 -156.7 l 60.1 -156.7 l 60.1 142.1"},"Е":{"ha":683,"x_min":0,"x_max":683,"o":"m 91.8 0.0 l 91.8 729.0 l 599.1 729.0 l 599.1 586.9 l 279.8 586.9 l 279.8 451.2 l 580.1 451.2 l 580.1 309.1 l 279.8 309.1 l 279.8 142.1 l 609.9 142.1 l 609.9 0.0 l 91.8 0.0"},"Ё":{"ha":683,"x_min":0,"x_max":683,"o":"m 181.2 807.1 l 181.2 927.2 l 295.9 927.2 l 295.9 807.1 l 181.2 807.1 m 374.0 807.1 l 374.0 927.2 l 488.8 927.2 l 488.8 807.1 l 374.0 807.1 m 91.8 0.0 l 91.8 729.0 l 599.1 729.0 l 599.1 586.9 l 279.8 586.9 l 279.8 451.2 l 580.1 451.2 l 580.1 309.1 l 279.8 309.1 l 279.8 142.1 l 609.9 142.1 l 609.9 0.0 l 91.8 0.0"},"Ж":{"ha":1224,"x_min":0,"x_max":1224,"o":"m 221.7 0.0 l 14.6 0.0 l 313.0 437.0 l 46.4 729.0 l 243.7 729.0 l 518.1 428.2 l 518.1 729.0 l 706.1 729.0 l 706.1 428.2 l 980.5 729.0 l 1177.7 729.0 l 911.1 437.0 l 1209.5 0.0 l 1002.4 0.0 l 793.0 307.1 l 706.1 211.9 l 706.1 0.0 l 518.1 0.0 l 518.1 211.9 l 431.2 307.1 l 221.7 0.0"},"З":{"ha":710,"x_min":0,"x_max":710,"o":"m 494.1 393.1 l 494.1 393.1 q 567.9 374.0 606.2 326.9 q 644.5 279.8 644.5 207.0 l 644.5 207.0 q 644.5 98.6 561.5 42.2 q 478.5 -14.2 304.7 -14.2 l 304.7 -14.2 q 232.9 -14.2 175.8 -4.9 q 118.7 4.4 65.9 22.0 l 65.9 22.0 l 65.9 167.0 q 118.7 140.6 170.7 127.2 q 222.7 113.8 297.4 113.8 l 297.4 113.8 q 377.0 113.8 416.7 139.6 q 456.5 165.5 456.5 213.9 l 456.5 213.9 q 456.5 263.7 415.8 289.3 q 375.0 314.9 280.8 314.9 l 280.8 314.9 l 190.9 314.9 l 190.9 436.0 l 284.7 436.0 q 370.1 436.0 404.8 458.3 q 439.5 480.5 439.5 525.9 l 439.5 525.9 q 439.5 567.9 405.8 590.8 q 372.1 613.8 305.7 613.8 l 305.7 613.8 q 236.3 613.8 176.3 601.8 q 116.2 589.8 82.5 573.2 l 82.5 573.2 l 82.5 710.9 q 115.2 722.2 187.3 732.2 q 259.3 742.2 305.2 742.2 l 305.2 742.2 q 464.8 742.2 546.1 695.6 q 627.4 648.9 627.4 555.2 l 627.4 555.2 q 627.4 491.2 593.8 450.4 q 560.1 409.7 494.1 393.1"},"И":{"ha":837,"x_min":0,"x_max":837,"o":"m 535.2 729.0 l 745.1 729.0 l 745.1 0.0 l 566.9 0.0 l 566.9 500.0 l 301.8 0.0 l 91.8 0.0 l 91.8 729.0 l 270.0 729.0 l 270.0 229.0 l 535.2 729.0"},"Й":{"ha":837,"x_min":0,"x_max":837,"o":"m 535.2 729.0 l 745.1 729.0 l 745.1 0.0 l 566.9 0.0 l 566.9 500.0 l 301.8 0.0 l 91.8 0.0 l 91.8 729.0 l 270.0 729.0 l 270.0 229.0 l 535.2 729.0 m 238.3 927.2 l 238.3 927.2 l 308.1 927.2 q 318.4 897.5 341.8 882.8 q 365.2 868.2 402.3 868.2 l 402.3 868.2 q 439.5 868.2 462.9 882.8 q 486.3 897.5 496.6 927.2 l 496.6 927.2 l 566.4 927.2 q 558.6 864.3 516.6 831.3 q 474.6 798.3 402.3 798.3 l 402.3 798.3 q 330.1 798.3 288.1 831.3 q 246.1 864.3 238.3 927.2"},"К":{"ha":817,"x_min":0,"x_max":817,"o":"m 91.8 0.0 l 91.8 729.0 l 279.8 729.0 l 279.8 428.2 l 573.7 729.0 l 786.6 729.0 l 497.1 433.6 l 802.7 0.0 l 595.7 0.0 l 376.5 310.5 l 279.8 211.9 l 279.8 0.0 l 91.8 0.0"},"Л":{"ha":831,"x_min":0,"x_max":831,"o":"m 45.9 0.0 l 45.9 0.0 l 45.9 142.1 q 169.9 155.8 194.8 236.6 q 219.7 317.4 219.7 591.3 l 219.7 591.3 l 219.7 729.0 l 738.8 729.0 l 738.8 0.0 l 550.8 0.0 l 550.8 586.9 l 407.7 586.9 l 407.7 542.5 q 407.7 274.9 360.4 151.1 q 313.0 27.3 45.9 0.0"},"М":{"ha":995,"x_min":0,"x_max":995,"o":"m 91.8 0.0 l 91.8 729.0 l 331.1 729.0 l 497.1 338.9 l 664.1 729.0 l 902.8 729.0 l 902.8 0.0 l 725.1 0.0 l 725.1 533.2 l 557.1 140.1 l 438.0 140.1 l 270.0 533.2 l 270.0 0.0 l 91.8 0.0"},"Н":{"ha":837,"x_min":0,"x_max":837,"o":"m 91.8 0.0 l 91.8 729.0 l 279.8 729.0 l 279.8 451.2 l 557.1 451.2 l 557.1 729.0 l 745.1 729.0 l 745.1 0.0 l 557.1 0.0 l 557.1 309.1 l 279.8 309.1 l 279.8 0.0 l 91.8 0.0"},"О":{"ha":850,"x_min":0,"x_max":850,"o":"m 424.8 606.0 l 424.8 606.0 q 338.9 606.0 291.5 542.5 q 244.1 479.0 244.1 363.8 l 244.1 363.8 q 244.1 249.0 291.5 185.5 q 338.9 122.1 424.8 122.1 l 424.8 122.1 q 511.2 122.1 558.6 185.5 q 606.0 249.0 606.0 363.8 l 606.0 363.8 q 606.0 479.0 558.6 542.5 q 511.2 606.0 424.8 606.0 m 424.8 742.2 l 424.8 742.2 q 600.6 742.2 700.2 641.6 q 799.8 541.0 799.8 363.8 l 799.8 363.8 q 799.8 187.0 700.2 86.4 q 600.6 -14.2 424.8 -14.2 l 424.8 -14.2 q 249.5 -14.2 149.7 86.4 q 49.8 187.0 49.8 363.8 l 49.8 363.8 q 49.8 541.0 149.7 641.6 q 249.5 742.2 424.8 742.2"},"П":{"ha":837,"x_min":0,"x_max":837,"o":"m 91.8 729.0 l 745.1 729.0 l 745.1 0.0 l 557.1 0.0 l 557.1 586.9 l 279.8 586.9 l 279.8 0.0 l 91.8 0.0 l 91.8 729.0"},"Р":{"ha":733,"x_min":0,"x_max":733,"o":"m 91.8 0.0 l 91.8 729.0 l 403.8 729.0 q 543.0 729.0 617.4 667.2 q 691.9 605.5 691.9 491.2 l 691.9 491.2 q 691.9 376.5 617.4 314.7 q 543.0 252.9 403.8 252.9 l 403.8 252.9 l 279.8 252.9 l 279.8 0.0 l 91.8 0.0 m 383.8 592.8 l 279.8 592.8 l 279.8 389.2 l 383.8 389.2 q 438.5 389.2 468.3 415.8 q 498.0 442.4 498.0 491.2 l 498.0 491.2 q 498.0 540.0 468.3 566.4 q 438.5 592.8 383.8 592.8 l 383.8 592.8"},"С":{"ha":734,"x_min":0,"x_max":734,"o":"m 669.9 190.9 l 669.9 40.0 q 618.2 13.2 562.0 -0.5 q 505.9 -14.2 444.8 -14.2 l 444.8 -14.2 q 262.7 -14.2 156.3 87.6 q 49.8 189.5 49.8 363.8 l 49.8 363.8 q 49.8 538.6 156.3 640.4 q 262.7 742.2 444.8 742.2 l 444.8 742.2 q 505.9 742.2 562.0 728.5 q 618.2 714.8 669.9 688.0 l 669.9 688.0 l 669.9 537.1 q 617.7 572.8 566.9 589.4 q 516.1 606.0 460.0 606.0 l 460.0 606.0 q 359.4 606.0 301.8 541.5 q 244.1 477.1 244.1 363.8 l 244.1 363.8 q 244.1 251.0 301.8 186.5 q 359.4 122.1 460.0 122.1 l 460.0 122.1 q 516.1 122.1 566.9 138.7 q 617.7 155.3 669.9 190.9 l 669.9 190.9"},"Т":{"ha":682,"x_min":0,"x_max":682,"o":"m 4.9 586.9 l 4.9 729.0 l 676.8 729.0 l 676.8 586.9 l 435.1 586.9 l 435.1 0.0 l 247.1 0.0 l 247.1 586.9 l 4.9 586.9"},"У":{"ha":771,"x_min":0,"x_max":771,"o":"m 741.2 729.0 l 454.6 121.1 q 435.1 79.6 406.3 53.2 l 406.3 53.2 q 347.7 0.0 181.6 0.0 l 181.6 0.0 l 147.5 0.0 l 147.5 142.1 l 199.2 142.1 q 267.6 142.1 283.7 175.8 l 283.7 175.8 q 287.6 183.1 291.0 190.4 l 291.0 190.4 l 28.8 729.0 l 225.1 729.0 l 386.7 397.0 l 543.9 729.0 l 741.2 729.0"},"Ф":{"ha":992,"x_min":0,"x_max":992,"o":"m 244.1 371.6 l 244.1 371.6 q 244.1 298.3 282.0 265.6 q 319.8 232.9 401.9 226.1 l 401.9 226.1 l 401.9 517.6 q 319.8 510.7 282.0 477.8 q 244.1 444.8 244.1 371.6 m 747.6 371.6 l 747.6 371.6 q 747.6 444.8 709.7 477.8 q 671.9 510.7 589.8 517.6 l 589.8 517.6 l 589.8 226.1 q 671.9 232.9 709.7 265.6 q 747.6 298.3 747.6 371.6 m 401.9 656.7 l 401.9 729.0 l 589.8 729.0 l 589.8 656.7 q 769.0 642.1 855.2 575.2 q 941.4 508.3 941.4 371.6 l 941.4 371.6 q 941.4 234.9 855.2 168.2 q 769.0 101.6 589.8 86.9 l 589.8 86.9 l 589.8 0.0 l 401.9 0.0 l 401.9 86.9 q 222.7 101.6 136.2 168.2 q 49.8 234.9 49.8 371.6 l 49.8 371.6 q 49.8 508.3 136.2 575.2 q 222.7 642.1 401.9 656.7 l 401.9 656.7"},"Х":{"ha":771,"x_min":0,"x_max":771,"o":"m 741.2 729.0 l 498.0 372.1 l 751.0 0.0 l 555.2 0.0 l 384.8 249.0 l 215.8 0.0 l 19.0 0.0 l 272.0 372.1 l 28.8 729.0 l 225.1 729.0 l 384.8 494.1 l 543.9 729.0 l 741.2 729.0"},"Ц":{"ha":928,"x_min":0,"x_max":928,"o":"m 725.6 -156.7 l 725.6 0.0 l 91.8 0.0 l 91.8 729.0 l 279.8 729.0 l 279.8 142.1 l 557.1 142.1 l 557.1 729.0 l 745.1 729.0 l 745.1 142.1 l 867.7 142.1 l 867.7 -156.7 l 725.6 -156.7"},"Ч":{"ha":808,"x_min":0,"x_max":808,"o":"m 716.3 0.0 l 528.3 0.0 l 528.3 278.3 l 273.4 278.3 q 180.7 278.3 130.6 335.4 q 80.6 392.6 80.6 505.4 l 80.6 505.4 l 80.6 729.0 l 268.6 729.0 l 268.6 594.7 q 268.6 479.5 286.6 450.0 q 304.7 420.4 350.6 420.4 l 350.6 420.4 l 528.3 420.4 l 528.3 729.0 l 716.3 729.0 l 716.3 0.0"},"Ш":{"ha":1235,"x_min":0,"x_max":1235,"o":"m 711.4 729.0 l 711.4 142.1 l 955.1 142.1 l 955.1 729.0 l 1143.1 729.0 l 1143.1 0.0 l 91.8 0.0 l 91.8 729.0 l 279.8 729.0 l 279.8 142.1 l 523.4 142.1 l 523.4 729.0 l 711.4 729.0"},"Щ":{"ha":1326,"x_min":0,"x_max":1326,"o":"m 1143.1 729.0 l 1143.1 142.1 l 1265.6 142.1 l 1265.6 -156.7 l 1123.5 -156.7 l 1123.5 0.0 l 91.8 0.0 l 91.8 729.0 l 279.8 729.0 l 279.8 142.1 l 523.4 142.1 l 523.4 729.0 l 711.4 729.0 l 711.4 142.1 l 955.1 142.1 l 955.1 729.0 l 1143.1 729.0"},"Ъ":{"ha":939,"x_min":0,"x_max":939,"o":"m 477.5 127.9 l 587.9 127.9 q 647.0 127.9 674.3 150.9 q 701.7 173.8 701.7 219.2 l 701.7 219.2 q 701.7 263.7 674.6 286.4 q 647.5 309.1 587.9 309.1 l 587.9 309.1 l 477.5 309.1 l 477.5 127.9 m 289.6 0.0 l 289.6 586.9 l 48.8 586.9 l 48.8 729.0 l 477.5 729.0 l 477.5 451.2 l 601.6 451.2 q 739.7 451.2 814.7 396.7 q 889.6 342.3 889.6 225.1 l 889.6 225.1 q 889.6 108.9 814.7 54.4 q 739.7 0.0 601.6 0.0 l 601.6 0.0 l 289.6 0.0"},"Ы":{"ha":1036,"x_min":0,"x_max":1036,"o":"m 279.8 127.9 l 390.1 127.9 q 449.2 127.9 475.6 149.9 l 475.6 149.9 q 503.9 173.8 503.9 219.2 l 503.9 219.2 q 503.9 263.7 475.6 287.1 l 475.6 287.1 q 449.7 309.1 390.1 309.1 l 390.1 309.1 l 279.8 309.1 l 279.8 127.9 m 691.9 225.1 l 691.9 225.1 q 691.9 108.9 620.6 57.1 l 620.6 57.1 q 542.0 0.0 403.8 0.0 l 403.8 0.0 l 91.8 0.0 l 91.8 729.0 l 279.8 729.0 l 279.8 451.2 l 403.8 451.2 q 542.0 451.2 620.6 394.0 l 620.6 394.0 q 691.9 342.3 691.9 225.1 m 756.3 0.0 l 756.3 729.0 l 944.3 729.0 l 944.3 0.0 l 756.3 0.0"},"Ь":{"ha":762,"x_min":0,"x_max":762,"o":"m 279.8 127.9 l 390.1 127.9 q 449.2 127.9 475.6 149.9 l 475.6 149.9 q 503.9 173.8 503.9 219.2 l 503.9 219.2 q 503.9 263.7 475.6 287.1 l 475.6 287.1 q 449.7 309.1 390.1 309.1 l 390.1 309.1 l 279.8 309.1 l 279.8 127.9 m 691.9 225.1 l 691.9 225.1 q 691.9 108.9 620.6 57.1 l 620.6 57.1 q 542.0 0.0 403.8 0.0 l 403.8 0.0 l 91.8 0.0 l 91.8 729.0 l 279.8 729.0 l 279.8 451.2 l 403.8 451.2 q 542.0 451.2 620.6 394.0 l 620.6 394.0 q 691.9 342.3 691.9 225.1"},"Э":{"ha":734,"x_min":0,"x_max":734,"o":"m 64.0 40.0 l 64.0 190.9 q 165.0 122.1 270.0 122.1 l 270.0 122.1 q 375.5 122.1 424.8 178.2 q 474.1 234.4 482.4 293.0 l 482.4 293.0 l 153.8 293.0 l 153.8 435.1 l 482.4 435.1 q 474.1 493.7 424.8 549.8 q 375.5 606.0 270.0 606.0 l 270.0 606.0 q 165.0 606.0 64.0 537.1 l 64.0 537.1 l 64.0 688.0 q 168.5 742.2 289.1 742.2 l 289.1 742.2 q 471.2 742.2 577.6 640.4 q 684.1 538.6 684.1 364.0 q 684.1 189.5 577.6 87.6 q 471.2 -14.2 289.1 -14.2 l 289.1 -14.2 q 168.5 -14.2 64.0 40.0 l 64.0 40.0"},"Ю":{"ha":1174,"x_min":0,"x_max":1174,"o":"m 279.8 435.1 l 373.0 435.1 q 386.7 557.6 477.5 649.9 l 477.5 649.9 q 568.4 742.2 743.7 742.2 l 743.7 742.2 q 919.4 742.2 1019.0 641.6 q 1118.7 541.0 1118.7 363.8 l 1118.7 363.8 q 1118.7 187.0 1019.0 86.4 q 919.4 -14.2 743.7 -14.2 l 743.7 -14.2 q 568.4 -14.2 477.5 78.1 l 477.5 78.1 q 386.7 170.4 373.0 293.0 l 373.0 293.0 l 279.8 293.0 l 279.8 0.0 l 91.8 0.0 l 91.8 729.0 l 279.8 729.0 l 279.8 435.1 m 743.7 606.0 l 743.7 606.0 q 657.7 606.0 610.4 542.5 q 563.0 479.0 563.0 363.8 l 563.0 363.8 q 563.0 249.0 610.4 185.5 q 657.7 122.1 743.7 122.1 l 743.7 122.1 q 830.1 122.1 877.4 185.5 q 924.8 249.0 924.8 363.8 l 924.8 363.8 q 924.8 479.0 877.4 542.5 q 830.1 606.0 743.7 606.0"},"Я":{"ha":770,"x_min":0,"x_max":770,"o":"m 286.1 500.0 l 286.1 500.0 q 286.1 449.7 311.8 427.7 q 337.4 405.8 396.5 405.8 l 396.5 405.8 l 490.2 405.8 l 490.2 592.8 l 396.5 592.8 q 337.4 592.8 311.8 571.3 q 286.1 549.8 286.1 500.0 m 264.2 0.0 l 64.0 0.0 l 245.6 309.6 q 208.5 330.6 153.3 383.1 q 98.1 435.5 98.1 508.3 l 98.1 508.3 q 98.1 617.7 165.3 673.3 q 232.4 729.0 376.5 729.0 l 376.5 729.0 l 678.2 729.0 l 678.2 0.0 l 490.2 0.0 l 490.2 275.9 l 426.3 275.9 l 264.2 0.0"},"а":{"ha":675,"x_min":0,"x_max":675,"o":"m 419.9 246.1 l 329.1 246.1 q 274.4 246.1 246.8 227.5 q 219.2 209.0 219.2 172.9 l 219.2 172.9 q 219.2 139.6 241.5 120.8 q 263.7 102.1 303.2 102.1 l 303.2 102.1 q 352.5 102.1 386.2 137.5 q 419.9 172.9 419.9 226.1 l 419.9 226.1 l 419.9 246.1 m 596.2 312.0 l 596.2 312.0 l 596.2 0.0 l 419.9 0.0 l 419.9 81.1 q 384.8 31.3 340.8 8.5 q 296.9 -14.2 233.9 -14.2 l 233.9 -14.2 q 148.9 -14.2 95.9 35.4 q 43.0 85.0 43.0 164.1 l 43.0 164.1 q 43.0 260.3 109.1 305.2 q 175.3 350.1 316.9 350.1 l 316.9 350.1 l 419.9 350.1 l 419.9 363.8 q 419.9 405.3 387.2 424.6 q 354.5 443.8 285.2 443.8 l 285.2 443.8 q 229.0 443.8 180.7 432.6 q 132.3 421.4 90.8 398.9 l 90.8 398.9 l 90.8 532.2 q 147.0 545.9 203.6 553.0 q 260.3 560.1 316.9 560.1 l 316.9 560.1 q 464.8 560.1 530.5 501.7 q 596.2 443.4 596.2 312.0"},"б":{"ha":698,"x_min":0,"x_max":698,"o":"m 53.7 303.2 l 53.7 303.2 l 50.3 384.8 q 43.0 417.5 43.0 450.2 l 43.0 450.2 q 43.0 545.9 71.3 608.4 l 71.3 608.4 q 123.5 723.6 193.4 747.1 l 193.4 747.1 q 251.0 767.1 490.7 786.1 l 490.7 786.1 q 515.1 788.1 543.0 792.5 l 543.0 792.5 l 582.0 684.1 q 544.9 674.3 354.5 657.7 l 354.5 657.7 q 271.0 650.4 236.8 627.0 l 236.8 627.0 q 180.2 588.4 175.8 515.6 l 175.8 515.6 q 247.6 560.1 355.5 560.1 l 355.5 560.1 q 496.6 560.1 575.9 483.9 q 655.3 407.7 655.3 272.9 l 655.3 272.9 q 655.3 138.2 576.2 62.0 q 497.1 -14.2 355.5 -14.2 l 355.5 -14.2 q 213.9 -14.2 134.0 62.0 q 54.2 138.2 54.2 272.9 l 54.2 272.9 q 54.2 291.5 53.7 303.2 m 355.0 435.1 l 355.0 435.1 q 297.4 435.1 266.8 393.3 q 236.3 351.6 236.3 272.9 l 236.3 272.9 q 236.3 194.3 266.8 152.6 q 297.4 110.8 355.0 110.8 l 355.0 110.8 q 412.6 110.8 442.9 152.6 q 473.1 194.3 473.1 272.9 l 473.1 272.9 q 473.1 351.6 442.9 393.3 q 412.6 435.1 355.0 435.1"},"в":{"ha":633,"x_min":0,"x_max":633,"o":"m 258.8 340.8 l 341.3 340.8 q 371.6 340.8 387.2 353.3 q 402.8 365.7 402.8 390.1 l 402.8 390.1 q 402.8 414.6 387.2 426.8 q 371.6 439.0 341.3 439.0 l 341.3 439.0 l 258.8 439.0 l 258.8 340.8 m 258.8 109.4 l 347.2 109.4 q 385.7 109.4 405.3 124.8 q 424.8 140.1 424.8 170.9 l 424.8 170.9 q 424.8 201.2 405.3 216.3 q 385.7 231.4 347.2 231.4 l 347.2 231.4 l 258.8 231.4 l 258.8 109.4 m 84.0 0.0 l 84.0 546.9 l 334.5 546.9 q 456.1 546.9 510.5 512.5 q 564.9 478.0 564.9 402.3 l 564.9 402.3 q 564.9 362.3 544.9 334.2 q 524.9 306.2 487.3 292.5 l 487.3 292.5 q 535.6 279.3 562.3 243.9 q 588.9 208.5 588.9 156.7 l 588.9 156.7 q 588.9 77.6 531.7 38.8 q 474.6 0.0 358.4 0.0 l 358.4 0.0 l 84.0 0.0"},"г":{"ha":522,"x_min":0,"x_max":522,"o":"m 258.8 0.0 l 84.0 0.0 l 84.0 546.9 l 498.5 546.9 l 498.5 439.0 l 258.8 439.0 l 258.8 0.0"},"д":{"ha":808,"x_min":0,"x_max":808,"o":"m 56.2 125.0 l 85.4 125.0 q 141.1 143.6 164.6 205.3 q 188.0 267.1 188.0 443.4 l 188.0 443.4 l 188.0 546.9 l 660.6 546.9 l 660.6 125.0 l 751.5 125.0 l 751.5 -138.2 l 626.5 -138.2 l 626.5 0.0 l 181.2 0.0 l 181.2 -138.2 l 56.2 -138.2 l 56.2 125.0 m 485.8 125.0 l 485.8 421.9 l 362.8 421.9 l 362.8 406.7 q 362.8 227.5 322.3 125.0 l 322.3 125.0 l 485.8 125.0"},"е":{"ha":678,"x_min":0,"x_max":678,"o":"m 629.9 274.9 l 629.9 274.9 l 629.9 225.1 l 221.2 225.1 q 227.5 163.6 265.6 132.8 q 303.7 102.1 372.1 102.1 l 372.1 102.1 q 427.2 102.1 485.1 118.4 q 543.0 134.8 604.0 168.0 l 604.0 168.0 l 604.0 33.2 q 542.0 9.8 480.0 -2.2 q 418.0 -14.2 356.0 -14.2 l 356.0 -14.2 q 207.5 -14.2 125.2 61.3 q 43.0 136.7 43.0 272.9 l 43.0 272.9 q 43.0 406.7 123.8 483.4 q 204.6 560.1 346.2 560.1 l 346.2 560.1 q 475.1 560.1 552.5 482.4 q 629.9 404.8 629.9 274.9 m 223.1 333.0 l 450.2 333.0 q 450.2 382.8 421.1 413.3 q 392.1 443.8 345.2 443.8 l 345.2 443.8 q 294.4 443.8 262.7 415.3 q 231.0 386.7 223.1 333.0 l 223.1 333.0"},"ё":{"ha":678,"x_min":0,"x_max":678,"o":"m 629.9 274.9 l 629.9 274.9 l 629.9 225.1 l 221.2 225.1 q 227.5 163.6 265.6 132.8 q 303.7 102.1 372.1 102.1 l 372.1 102.1 q 427.2 102.1 485.1 118.4 q 543.0 134.8 604.0 168.0 l 604.0 168.0 l 604.0 33.2 q 542.0 9.8 480.0 -2.2 q 418.0 -14.2 356.0 -14.2 l 356.0 -14.2 q 207.5 -14.2 125.2 61.3 q 43.0 136.7 43.0 272.9 l 43.0 272.9 q 43.0 406.7 123.8 483.4 q 204.6 560.1 346.2 560.1 l 346.2 560.1 q 475.1 560.1 552.5 482.4 q 629.9 404.8 629.9 274.9 m 223.1 333.0 l 450.2 333.0 q 450.2 382.8 421.1 413.3 q 392.1 443.8 345.2 443.8 l 345.2 443.8 q 294.4 443.8 262.7 415.3 q 231.0 386.7 223.1 333.0 l 223.1 333.0 m 192.4 653.8 l 192.4 773.9 l 307.1 773.9 l 307.1 653.8 l 192.4 653.8 m 385.3 653.8 l 385.3 773.9 l 500.0 773.9 l 500.0 653.8 l 385.3 653.8"},"ж":{"ha":995,"x_min":0,"x_max":995,"o":"m 195.3 0.0 l 14.6 0.0 l 262.2 324.7 l 33.7 546.9 l 225.1 546.9 l 410.2 366.7 l 410.2 546.9 l 585.0 546.9 l 585.0 366.7 l 770.0 546.9 l 961.4 546.9 l 732.9 324.7 l 980.5 0.0 l 799.8 0.0 l 628.9 223.6 l 585.0 181.2 l 585.0 0.0 l 410.2 0.0 l 410.2 181.2 l 366.2 223.6 l 195.3 0.0"},"з":{"ha":581,"x_min":0,"x_max":581,"o":"m 140.6 232.9 l 140.6 340.8 l 220.7 340.8 q 292.5 340.8 318.6 356.4 q 344.7 372.1 344.7 393.6 l 344.7 393.6 q 344.7 443.8 229.5 443.8 l 229.5 443.8 q 133.3 443.8 73.7 410.2 l 73.7 410.2 l 73.7 536.6 q 162.6 560.1 267.6 560.1 l 267.6 560.1 q 390.6 560.1 447.3 525.1 q 503.9 490.2 503.9 416.5 l 503.9 416.5 q 503.9 319.8 397.0 294.9 l 397.0 294.9 q 517.6 265.1 517.6 155.3 l 517.6 155.3 q 517.6 70.8 451.2 28.3 q 384.8 -14.2 242.7 -14.2 l 242.7 -14.2 q 136.7 -14.2 48.8 13.2 l 48.8 13.2 l 48.8 147.9 q 158.2 102.1 223.1 102.1 l 223.1 102.1 q 294.4 102.1 326.4 121.3 q 358.4 140.6 358.4 165.0 l 358.4 165.0 q 358.4 232.9 217.8 232.9 l 217.8 232.9 l 140.6 232.9"},"и":{"ha":701,"x_min":0,"x_max":701,"o":"m 435.1 546.9 l 616.7 546.9 l 616.7 0.0 l 441.9 0.0 l 441.9 291.0 l 265.6 0.0 l 84.0 0.0 l 84.0 546.9 l 258.8 546.9 l 258.8 255.9 l 435.1 546.9"},"й":{"ha":701,"x_min":0,"x_max":701,"o":"m 435.1 546.9 l 616.7 546.9 l 616.7 0.0 l 441.9 0.0 l 441.9 291.0 l 265.6 0.0 l 84.0 0.0 l 84.0 546.9 l 258.8 546.9 l 258.8 255.9 l 435.1 546.9 m 186.5 764.6 l 186.5 764.6 l 256.3 764.6 q 261.7 730.5 285.9 712.4 q 310.1 694.3 350.6 694.3 l 350.6 694.3 q 391.1 694.3 415.3 712.4 q 439.5 730.5 444.8 764.6 l 444.8 764.6 l 514.6 764.6 q 511.7 694.3 469.2 657.0 q 426.8 619.6 350.6 619.6 l 350.6 619.6 q 274.4 619.6 231.9 657.0 q 189.5 694.3 186.5 764.6"},"к":{"ha":679,"x_min":0,"x_max":679,"o":"m 84.0 0.0 l 84.0 546.9 l 258.8 546.9 l 258.8 361.8 l 453.6 546.9 l 645.0 546.9 l 411.6 324.7 l 664.1 0.0 l 483.4 0.0 l 308.1 226.1 l 258.8 179.2 l 258.8 0.0 l 84.0 0.0"},"л":{"ha":732,"x_min":0,"x_max":732,"o":"m 55.2 0.0 l 55.2 0.0 l 55.2 125.0 q 141.6 142.6 161.1 199.7 l 161.1 199.7 q 175.8 243.2 175.8 457.5 l 175.8 457.5 l 175.8 546.9 l 648.4 546.9 l 648.4 0.0 l 473.6 0.0 l 473.6 421.9 l 350.6 421.9 l 350.6 403.8 q 350.6 189.5 316.9 127.0 l 316.9 127.0 q 248.5 0.0 55.2 0.0"},"м":{"ha":817,"x_min":0,"x_max":817,"o":"m 84.0 0.0 l 84.0 546.9 l 285.2 546.9 l 408.2 273.4 l 531.3 546.9 l 732.9 546.9 l 732.9 0.0 l 558.6 0.0 l 558.6 310.1 l 466.3 105.0 l 351.6 105.0 l 258.8 310.1 l 258.8 0.0 l 84.0 0.0"},"н":{"ha":691,"x_min":0,"x_max":691,"o":"m 84.0 0.0 l 84.0 546.9 l 258.8 546.9 l 258.8 338.9 l 432.1 338.9 l 432.1 546.9 l 606.9 546.9 l 606.9 0.0 l 432.1 0.0 l 432.1 231.0 l 258.8 231.0 l 258.8 0.0 l 84.0 0.0"},"о":{"ha":687,"x_min":0,"x_max":687,"o":"m 344.2 435.1 l 344.2 435.1 q 286.1 435.1 255.6 393.3 q 225.1 351.6 225.1 272.9 l 225.1 272.9 q 225.1 194.3 255.6 152.6 q 286.1 110.8 344.2 110.8 l 344.2 110.8 q 401.4 110.8 431.6 152.6 q 461.9 194.3 461.9 272.9 l 461.9 272.9 q 461.9 351.6 431.6 393.3 q 401.4 435.1 344.2 435.1 m 344.2 560.1 l 344.2 560.1 q 485.4 560.1 564.7 483.9 q 644.0 407.7 644.0 272.9 l 644.0 272.9 q 644.0 138.2 564.7 62.0 q 485.4 -14.2 344.2 -14.2 l 344.2 -14.2 q 202.6 -14.2 122.8 62.0 q 43.0 138.2 43.0 272.9 l 43.0 272.9 q 43.0 407.7 122.8 483.9 q 202.6 560.1 344.2 560.1"},"п":{"ha":691,"x_min":0,"x_max":691,"o":"m 84.0 546.9 l 606.9 546.9 l 606.9 0.0 l 432.1 0.0 l 432.1 421.9 l 258.8 421.9 l 258.8 0.0 l 84.0 0.0 l 84.0 546.9"},"р":{"ha":716,"x_min":0,"x_max":716,"o":"m 258.8 79.1 l 258.8 79.1 l 258.8 -208.0 l 84.0 -208.0 l 84.0 546.9 l 258.8 546.9 l 258.8 466.8 q 294.9 514.6 338.9 537.4 q 382.8 560.1 439.9 560.1 l 439.9 560.1 q 541.0 560.1 606.0 479.7 q 670.9 399.4 670.9 272.9 l 670.9 272.9 q 670.9 146.5 606.0 66.2 q 541.0 -14.2 439.9 -14.2 l 439.9 -14.2 q 382.8 -14.2 338.9 8.5 q 294.9 31.3 258.8 79.1 m 375.0 433.1 l 375.0 433.1 q 318.8 433.1 288.8 391.8 q 258.8 350.6 258.8 272.9 l 258.8 272.9 q 258.8 195.3 288.8 154.1 q 318.8 112.8 375.0 112.8 l 375.0 112.8 q 431.2 112.8 460.7 153.8 q 490.2 194.8 490.2 272.9 l 490.2 272.9 q 490.2 351.1 460.7 392.1 q 431.2 433.1 375.0 433.1"},"с":{"ha":593,"x_min":0,"x_max":593,"o":"m 525.9 529.8 l 525.9 529.8 l 525.9 387.2 q 490.2 411.6 454.3 423.3 q 418.5 435.1 379.9 435.1 l 379.9 435.1 q 306.6 435.1 265.9 392.3 q 225.1 349.6 225.1 272.9 l 225.1 272.9 q 225.1 196.3 265.9 153.6 q 306.6 110.8 379.9 110.8 l 379.9 110.8 q 420.9 110.8 457.8 123.0 q 494.6 135.3 525.9 159.2 l 525.9 159.2 l 525.9 16.1 q 484.9 1.0 442.6 -6.6 q 400.4 -14.2 357.9 -14.2 l 357.9 -14.2 q 210.0 -14.2 126.5 61.8 q 43.0 137.7 43.0 272.9 l 43.0 272.9 q 43.0 408.2 126.5 484.1 q 210.0 560.1 357.9 560.1 l 357.9 560.1 q 400.9 560.1 442.6 552.5 q 484.4 544.9 525.9 529.8"},"т":{"ha":580,"x_min":0,"x_max":580,"o":"m 3.9 439.0 l 3.9 546.9 l 575.2 546.9 l 575.2 439.0 l 377.0 439.0 l 377.0 0.0 l 202.6 0.0 l 202.6 439.0 l 3.9 439.0"},"у":{"ha":652,"x_min":0,"x_max":652,"o":"m 255.9 -21.0 l 12.2 546.9 l 187.0 546.9 l 334.0 175.8 l 459.0 546.9 l 633.8 546.9 l 403.8 -51.8 q 369.1 -143.1 323.0 -179.4 q 276.9 -215.8 201.2 -215.8 l 201.2 -215.8 l 100.1 -215.8 l 100.1 -101.1 l 154.8 -101.1 q 199.2 -101.1 219.5 -86.9 q 239.7 -72.8 251.0 -36.1 l 251.0 -36.1 l 255.9 -21.0"},"ф":{"ha":992,"x_min":0,"x_max":992,"o":"m 326.7 433.1 l 326.7 433.1 q 294.9 433.1 265.4 392.1 q 235.8 351.1 235.8 272.9 l 235.8 272.9 q 235.8 194.8 265.4 153.8 q 294.9 112.8 326.7 112.8 l 326.7 112.8 q 378.9 112.8 408.7 148.9 l 408.7 148.9 l 408.7 397.0 q 378.9 433.1 326.7 433.1 m 408.7 524.4 l 408.7 759.8 l 583.5 759.8 l 583.5 524.4 q 635.3 560.1 706.1 560.1 l 706.1 560.1 q 807.1 560.1 872.1 479.7 q 937.0 399.4 937.0 272.9 l 937.0 272.9 q 937.0 146.5 872.1 66.2 q 807.1 -14.2 706.1 -14.2 l 706.1 -14.2 q 635.3 -14.2 583.5 21.5 l 583.5 21.5 l 583.5 -208.0 l 408.7 -208.0 l 408.7 21.5 q 356.9 -14.2 286.1 -14.2 l 286.1 -14.2 q 185.1 -14.2 120.1 66.2 q 55.2 146.5 55.2 272.9 l 55.2 272.9 q 55.2 399.4 120.1 479.7 q 185.1 560.1 286.1 560.1 l 286.1 560.1 q 356.9 560.1 408.7 524.4 l 408.7 524.4 m 665.5 433.1 l 665.5 433.1 q 613.3 433.1 583.5 397.0 l 583.5 397.0 l 583.5 148.9 q 613.3 112.8 665.5 112.8 l 665.5 112.8 q 697.3 112.8 726.8 153.8 q 756.3 194.8 756.3 272.9 l 756.3 272.9 q 756.3 351.1 726.8 392.1 q 697.3 433.1 665.5 433.1"},"х":{"ha":645,"x_min":0,"x_max":645,"o":"m 15.1 0.0 l 222.2 279.8 l 24.9 546.9 l 210.0 546.9 l 321.8 384.8 l 435.1 546.9 l 620.1 546.9 l 422.9 280.8 l 629.9 0.0 l 444.8 0.0 l 321.8 172.9 l 200.2 0.0 l 15.1 0.0"},"ц":{"ha":741,"x_min":0,"x_max":741,"o":"m 697.8 -138.2 l 572.8 -138.2 l 572.8 0.0 l 84.0 0.0 l 84.0 546.9 l 258.8 546.9 l 258.8 125.0 l 432.1 125.0 l 432.1 546.9 l 606.9 546.9 l 606.9 125.0 l 697.8 125.0 l 697.8 -138.2"},"ч":{"ha":687,"x_min":0,"x_max":687,"o":"m 573.2 0.0 l 398.4 0.0 l 398.4 211.4 l 218.8 211.4 q 145.5 211.4 105.0 254.6 q 64.5 297.9 64.5 382.8 l 64.5 382.8 l 64.5 546.9 l 239.3 546.9 l 239.3 449.7 q 239.3 362.8 253.4 341.1 q 267.6 319.3 304.7 319.3 l 304.7 319.3 l 398.4 319.3 l 398.4 546.9 l 573.2 546.9 l 573.2 0.0"},"ш":{"ha":1062,"x_min":0,"x_max":1062,"o":"m 615.2 546.9 l 615.2 125.0 l 796.9 125.0 l 796.9 546.9 l 971.7 546.9 l 971.7 0.0 l 84.0 0.0 l 84.0 546.9 l 258.8 546.9 l 258.8 125.0 l 440.4 125.0 l 440.4 546.9 l 615.2 546.9"},"щ":{"ha":1105,"x_min":0,"x_max":1105,"o":"m 937.5 -138.2 l 937.5 0.0 l 84.0 0.0 l 84.0 546.9 l 258.8 546.9 l 258.8 125.0 l 440.4 125.0 l 440.4 546.9 l 615.2 546.9 l 615.2 125.0 l 796.9 125.0 l 796.9 546.9 l 971.7 546.9 l 971.7 125.0 l 1062.5 125.0 l 1062.5 -138.2 l 937.5 -138.2"},"ъ":{"ha":751,"x_min":0,"x_max":751,"o":"m 381.8 109.4 l 470.2 109.4 q 508.8 109.4 528.3 124.8 q 547.9 140.1 547.9 170.9 l 547.9 170.9 q 547.9 201.2 528.6 216.3 q 509.3 231.4 470.2 231.4 l 470.2 231.4 l 381.8 231.4 l 381.8 109.4 m 481.0 0.0 l 207.0 0.0 l 207.0 439.0 l 19.5 439.0 l 19.5 546.9 l 381.8 546.9 l 381.8 339.4 l 481.0 339.4 q 591.8 339.4 651.6 298.6 q 711.4 257.8 711.4 168.9 q 711.4 80.1 651.1 40.0 q 590.8 0.0 481.0 0.0 l 481.0 0.0"},"ы":{"ha":904,"x_min":0,"x_max":904,"o":"m 648.4 0.0 l 648.4 546.9 l 823.2 546.9 l 823.2 0.0 l 648.4 0.0 m 424.8 170.9 l 424.8 170.9 q 424.8 201.7 405.3 216.8 l 405.3 216.8 q 386.2 231.4 347.2 231.4 l 347.2 231.4 l 258.8 231.4 l 258.8 109.4 l 347.2 109.4 q 385.7 109.4 405.3 125.0 l 405.3 125.0 q 424.8 140.1 424.8 170.9 m 84.0 0.0 l 84.0 546.9 l 258.8 546.9 l 258.8 339.4 l 357.9 339.4 q 468.8 339.4 528.3 298.8 l 528.3 298.8 q 588.4 257.8 588.4 168.9 l 588.4 168.9 q 588.4 80.1 528.3 40.0 l 528.3 40.0 q 468.8 0.0 357.9 0.0 l 357.9 0.0 l 84.0 0.0"},"ь":{"ha":632,"x_min":0,"x_max":632,"o":"m 424.8 170.9 l 424.8 170.9 q 424.8 201.7 405.3 216.8 l 405.3 216.8 q 386.2 231.4 347.2 231.4 l 347.2 231.4 l 258.8 231.4 l 258.8 109.4 l 347.2 109.4 q 385.7 109.4 405.3 125.0 l 405.3 125.0 q 424.8 140.1 424.8 170.9 m 84.0 0.0 l 84.0 546.9 l 258.8 546.9 l 258.8 339.4 l 357.9 339.4 q 468.8 339.4 528.3 298.8 l 528.3 298.8 q 588.4 257.8 588.4 168.9 l 588.4 168.9 q 588.4 80.1 528.3 40.0 l 528.3 40.0 q 468.8 0.0 357.9 0.0 l 357.9 0.0 l 84.0 0.0"},"э":{"ha":593,"x_min":0,"x_max":593,"o":"m 130.9 225.6 l 130.9 323.7 l 362.3 323.7 q 356.0 360.4 321.0 397.7 q 286.1 435.1 211.4 435.1 q 136.7 435.1 66.9 387.2 l 66.9 387.2 l 66.9 529.8 q 149.9 560.1 234.9 560.1 l 234.9 560.1 q 382.8 560.1 466.3 484.1 q 549.8 408.2 549.8 272.9 q 549.8 137.7 466.3 61.8 q 382.8 -14.2 234.9 -14.2 l 234.9 -14.2 q 148.9 -14.2 66.9 16.1 l 66.9 16.1 l 66.9 159.2 q 129.9 110.8 208.0 110.8 l 208.0 110.8 q 283.7 110.8 320.3 147.5 q 356.9 184.1 363.3 225.6 l 363.3 225.6 l 130.9 225.6"},"ю":{"ha":972,"x_min":0,"x_max":972,"o":"m 84.0 0.0 l 84.0 546.9 l 258.8 546.9 l 258.8 327.6 l 330.1 327.6 q 339.8 421.4 413.1 490.7 l 413.1 490.7 q 486.3 560.1 627.9 560.1 l 627.9 560.1 q 769.0 560.1 848.4 483.9 q 927.7 407.7 927.7 272.9 l 927.7 272.9 q 927.7 138.2 848.4 62.0 q 769.0 -14.2 627.9 -14.2 l 627.9 -14.2 q 486.3 -14.2 413.1 55.7 l 413.1 55.7 q 340.3 126.0 330.6 219.7 l 330.6 219.7 l 258.8 219.7 l 258.8 0.0 l 84.0 0.0 m 627.9 435.1 l 627.9 435.1 q 569.8 435.1 539.3 393.3 q 508.8 351.6 508.8 272.9 l 508.8 272.9 q 508.8 194.3 539.3 152.6 q 569.8 110.8 627.9 110.8 l 627.9 110.8 q 685.1 110.8 715.3 152.6 q 745.6 194.3 745.6 272.9 l 745.6 272.9 q 745.6 351.6 715.3 393.3 q 685.1 435.1 627.9 435.1"},"я":{"ha":642,"x_min":0,"x_max":642,"o":"m 238.8 374.0 l 238.8 374.0 q 238.8 338.9 258.1 323.2 q 277.3 307.6 321.8 307.6 l 321.8 307.6 l 384.8 307.6 l 384.8 439.9 l 321.8 439.9 q 277.3 439.9 258.1 424.8 q 238.8 409.7 238.8 374.0 m 201.2 0.0 l 30.8 0.0 l 173.8 233.9 q 132.3 257.8 101.6 299.6 q 70.8 341.3 70.8 393.1 l 70.8 393.1 q 70.8 470.7 123.3 508.8 q 175.8 546.9 293.5 546.9 l 293.5 546.9 l 559.6 546.9 l 559.6 0.0 l 384.8 0.0 l 384.8 199.7 l 323.2 199.7 l 201.2 0.0"},"A":{"ha":774,"x_min":0,"x_max":774,"o":"m 580.1 0.0 l 534.2 132.8 l 240.2 132.8 l 193.8 0.0 l 4.9 0.0 l 274.9 729.0 l 499.0 729.0 l 769.0 0.0 l 580.1 0.0 m 387.2 558.1 l 287.1 268.1 l 486.8 268.1 l 387.2 558.1"},"B":{"ha":762,"x_min":0,"x_max":762,"o":"m 279.8 446.8 l 383.8 446.8 q 428.2 446.8 451.2 466.3 q 474.1 485.8 474.1 523.9 l 474.1 523.9 q 474.1 561.5 451.2 581.3 q 428.2 601.1 383.8 601.1 l 383.8 601.1 l 279.8 601.1 l 279.8 446.8 m 279.8 127.9 l 390.1 127.9 q 446.8 127.9 475.3 151.9 q 503.9 175.8 503.9 224.1 l 503.9 224.1 q 503.9 271.5 475.6 295.2 q 447.3 318.8 390.1 318.8 l 390.1 318.8 l 279.8 318.8 l 279.8 127.9 m 564.9 390.1 l 564.9 390.1 q 625.5 372.6 658.7 325.2 q 691.9 277.8 691.9 209.0 l 691.9 209.0 q 691.9 103.5 620.6 51.8 q 549.3 0.0 403.8 0.0 l 403.8 0.0 l 91.8 0.0 l 91.8 729.0 l 374.0 729.0 q 525.9 729.0 594.0 683.1 q 662.1 637.2 662.1 536.1 l 662.1 536.1 q 662.1 482.9 637.2 445.6 q 612.3 408.2 564.9 390.1"},"C":{"ha":734,"x_min":0,"x_max":734,"o":"m 669.9 190.9 l 669.9 40.0 q 618.2 13.2 562.0 -0.5 q 505.9 -14.2 444.8 -14.2 l 444.8 -14.2 q 262.7 -14.2 156.3 87.6 q 49.8 189.5 49.8 363.8 l 49.8 363.8 q 49.8 538.6 156.3 640.4 q 262.7 742.2 444.8 742.2 l 444.8 742.2 q 505.9 742.2 562.0 728.5 q 618.2 714.8 669.9 688.0 l 669.9 688.0 l 669.9 537.1 q 617.7 572.8 566.9 589.4 q 516.1 606.0 460.0 606.0 l 460.0 606.0 q 359.4 606.0 301.8 541.5 q 244.1 477.1 244.1 363.8 l 244.1 363.8 q 244.1 251.0 301.8 186.5 q 359.4 122.1 460.0 122.1 l 460.0 122.1 q 516.1 122.1 566.9 138.7 q 617.7 155.3 669.9 190.9 l 669.9 190.9"},"D":{"ha":830,"x_min":0,"x_max":830,"o":"m 347.2 586.9 l 279.8 586.9 l 279.8 142.1 l 347.2 142.1 q 462.4 142.1 523.2 199.2 q 584.0 256.3 584.0 365.2 l 584.0 365.2 q 584.0 473.6 523.4 530.3 q 462.9 586.9 347.2 586.9 l 347.2 586.9 m 91.8 0.0 l 91.8 729.0 l 290.0 729.0 q 456.1 729.0 537.4 705.3 q 618.7 681.6 676.8 625.0 l 676.8 625.0 q 728.0 575.7 752.9 511.2 q 777.8 446.8 777.8 365.2 l 777.8 365.2 q 777.8 282.7 752.9 218.0 q 728.0 153.3 676.8 104.0 l 676.8 104.0 q 618.2 47.4 536.1 23.7 q 454.1 0.0 290.0 0.0 l 290.0 0.0 l 91.8 0.0"},"E":{"ha":683,"x_min":0,"x_max":683,"o":"m 91.8 0.0 l 91.8 729.0 l 599.1 729.0 l 599.1 586.9 l 279.8 586.9 l 279.8 451.2 l 580.1 451.2 l 580.1 309.1 l 279.8 309.1 l 279.8 142.1 l 609.9 142.1 l 609.9 0.0 l 91.8 0.0"},"F":{"ha":683,"x_min":0,"x_max":683,"o":"m 91.8 0.0 l 91.8 729.0 l 599.1 729.0 l 599.1 586.9 l 279.8 586.9 l 279.8 451.2 l 580.1 451.2 l 580.1 309.1 l 279.8 309.1 l 279.8 0.0 l 91.8 0.0"},"G":{"ha":821,"x_min":0,"x_max":821,"o":"m 747.1 404.8 l 747.1 54.2 q 676.8 20.0 601.1 2.9 q 525.4 -14.2 444.8 -14.2 l 444.8 -14.2 q 262.7 -14.2 156.3 87.6 q 49.8 189.5 49.8 363.8 l 49.8 363.8 q 49.8 540.0 158.2 641.1 q 266.6 742.2 455.1 742.2 l 455.1 742.2 q 527.8 742.2 594.5 728.5 q 661.1 714.8 720.2 688.0 l 720.2 688.0 l 720.2 537.1 q 659.2 571.8 598.9 588.9 q 538.6 606.0 478.0 606.0 l 478.0 606.0 q 365.7 606.0 304.9 543.2 q 244.1 480.5 244.1 363.8 l 244.1 363.8 q 244.1 248.0 302.7 185.1 q 361.3 122.1 469.2 122.1 l 469.2 122.1 q 498.5 122.1 523.7 125.7 q 548.8 129.4 568.8 137.2 l 568.8 137.2 l 568.8 278.8 l 454.1 278.8 l 454.1 404.8 l 747.1 404.8"},"H":{"ha":837,"x_min":0,"x_max":837,"o":"m 91.8 0.0 l 91.8 729.0 l 279.8 729.0 l 279.8 451.2 l 557.1 451.2 l 557.1 729.0 l 745.1 729.0 l 745.1 0.0 l 557.1 0.0 l 557.1 309.1 l 279.8 309.1 l 279.8 0.0 l 91.8 0.0"},"I":{"ha":372,"x_min":0,"x_max":372,"o":"m 91.8 0.0 l 91.8 729.0 l 279.8 729.0 l 279.8 0.0 l 91.8 0.0"},"J":{"ha":372,"x_min":0,"x_max":372,"o":"m 91.8 70.8 l 91.8 729.0 l 279.8 729.0 l 279.8 70.8 q 279.8 -65.4 205.8 -132.8 q 131.8 -200.2 -18.1 -200.2 l -18.1 -200.2 l -56.2 -200.2 l -56.2 -58.1 l -26.9 -58.1 q 31.7 -58.1 61.8 -25.4 q 91.8 7.3 91.8 70.8 l 91.8 70.8"},"K":{"ha":775,"x_min":0,"x_max":775,"o":"m 91.8 0.0 l 91.8 729.0 l 279.8 729.0 l 279.8 462.9 l 550.8 729.0 l 769.0 729.0 l 418.0 383.8 l 805.2 0.0 l 569.8 0.0 l 279.8 287.1 l 279.8 0.0 l 91.8 0.0"},"L":{"ha":637,"x_min":0,"x_max":637,"o":"m 91.8 0.0 l 91.8 729.0 l 279.8 729.0 l 279.8 142.1 l 609.9 142.1 l 609.9 0.0 l 91.8 0.0"},"M":{"ha":995,"x_min":0,"x_max":995,"o":"m 91.8 0.0 l 91.8 729.0 l 331.1 729.0 l 497.1 338.9 l 664.1 729.0 l 902.8 729.0 l 902.8 0.0 l 725.1 0.0 l 725.1 533.2 l 557.1 140.1 l 438.0 140.1 l 270.0 533.2 l 270.0 0.0 l 91.8 0.0"},"N":{"ha":837,"x_min":0,"x_max":837,"o":"m 91.8 0.0 l 91.8 729.0 l 301.8 729.0 l 566.9 229.0 l 566.9 729.0 l 745.1 729.0 l 745.1 0.0 l 535.2 0.0 l 270.0 500.0 l 270.0 0.0 l 91.8 0.0"},"O":{"ha":850,"x_min":0,"x_max":850,"o":"m 424.8 606.0 l 424.8 606.0 q 338.9 606.0 291.5 542.5 q 244.1 479.0 244.1 363.8 l 244.1 363.8 q 244.1 249.0 291.5 185.5 q 338.9 122.1 424.8 122.1 l 424.8 122.1 q 511.2 122.1 558.6 185.5 q 606.0 249.0 606.0 363.8 l 606.0 363.8 q 606.0 479.0 558.6 542.5 q 511.2 606.0 424.8 606.0 m 424.8 742.2 l 424.8 742.2 q 600.6 742.2 700.2 641.6 q 799.8 541.0 799.8 363.8 l 799.8 363.8 q 799.8 187.0 700.2 86.4 q 600.6 -14.2 424.8 -14.2 l 424.8 -14.2 q 249.5 -14.2 149.7 86.4 q 49.8 187.0 49.8 363.8 l 49.8 363.8 q 49.8 541.0 149.7 641.6 q 249.5 742.2 424.8 742.2"},"P":{"ha":733,"x_min":0,"x_max":733,"o":"m 91.8 0.0 l 91.8 729.0 l 403.8 729.0 q 543.0 729.0 617.4 667.2 q 691.9 605.5 691.9 491.2 l 691.9 491.2 q 691.9 376.5 617.4 314.7 q 543.0 252.9 403.8 252.9 l 403.8 252.9 l 279.8 252.9 l 279.8 0.0 l 91.8 0.0 m 383.8 592.8 l 279.8 592.8 l 279.8 389.2 l 383.8 389.2 q 438.5 389.2 468.3 415.8 q 498.0 442.4 498.0 491.2 l 498.0 491.2 q 498.0 540.0 468.3 566.4 q 438.5 592.8 383.8 592.8 l 383.8 592.8"},"Q":{"ha":850,"x_min":0,"x_max":850,"o":"m 564.0 -146.0 l 444.8 -13.2 l 430.2 -13.2 q 250.0 -13.2 149.9 86.4 q 49.8 186.0 49.8 363.8 l 49.8 363.8 q 49.8 541.0 149.7 641.6 q 249.5 742.2 424.8 742.2 l 424.8 742.2 q 602.1 742.2 700.9 642.6 q 799.8 543.0 799.8 363.8 l 799.8 363.8 q 799.8 240.7 747.3 151.9 q 694.8 63.0 596.2 18.1 l 596.2 18.1 l 743.2 -146.0 l 564.0 -146.0 m 424.8 606.0 l 424.8 606.0 q 338.9 606.0 291.5 542.5 q 244.1 479.0 244.1 363.8 l 244.1 363.8 q 244.1 246.6 290.5 184.3 q 336.9 122.1 424.8 122.1 l 424.8 122.1 q 511.2 122.1 558.6 185.5 q 606.0 249.0 606.0 363.8 l 606.0 363.8 q 606.0 479.0 558.6 542.5 q 511.2 606.0 424.8 606.0"},"R":{"ha":770,"x_min":0,"x_max":770,"o":"m 279.8 405.8 l 358.9 405.8 q 418.0 405.8 443.6 427.7 q 469.2 449.7 469.2 500.0 l 469.2 500.0 q 469.2 549.8 443.6 571.3 q 418.0 592.8 358.9 592.8 l 358.9 592.8 l 279.8 592.8 l 279.8 405.8 m 333.0 275.9 l 279.8 275.9 l 279.8 0.0 l 91.8 0.0 l 91.8 729.0 l 378.9 729.0 q 522.9 729.0 590.1 680.7 q 657.2 632.3 657.2 527.8 l 657.2 527.8 q 657.2 455.6 622.3 409.2 q 587.4 362.8 517.1 340.8 l 517.1 340.8 q 555.7 332.0 586.2 301.0 q 616.7 270.0 647.9 207.0 l 647.9 207.0 l 750.0 0.0 l 549.8 0.0 l 460.9 181.2 q 434.1 235.8 406.5 255.9 q 378.9 275.9 333.0 275.9 l 333.0 275.9"},"S":{"ha":720,"x_min":0,"x_max":720,"o":"m 599.1 706.1 l 599.1 706.1 l 599.1 551.8 q 539.1 578.6 481.9 592.3 q 424.8 606.0 374.0 606.0 l 374.0 606.0 q 306.6 606.0 274.4 587.4 q 242.2 568.8 242.2 529.8 l 242.2 529.8 q 242.2 500.5 263.9 484.1 q 285.6 467.8 342.8 456.1 l 342.8 456.1 l 422.9 439.9 q 544.4 415.5 595.7 365.7 q 647.0 315.9 647.0 224.1 l 647.0 224.1 q 647.0 103.5 575.4 44.7 q 503.9 -14.2 356.9 -14.2 l 356.9 -14.2 q 287.6 -14.2 217.8 -1.0 q 147.9 12.2 78.1 38.1 l 78.1 38.1 l 78.1 196.8 q 147.9 159.7 213.1 140.9 q 278.3 122.1 338.9 122.1 l 338.9 122.1 q 400.4 122.1 433.1 142.6 q 465.8 163.1 465.8 201.2 l 465.8 201.2 q 465.8 235.4 443.6 253.9 q 421.4 272.5 355.0 287.1 l 355.0 287.1 l 282.2 303.2 q 172.9 326.7 122.3 377.9 q 71.8 429.2 71.8 516.1 l 71.8 516.1 q 71.8 625.0 142.1 683.6 q 212.4 742.2 344.2 742.2 l 344.2 742.2 q 404.3 742.2 467.8 733.2 q 531.3 724.1 599.1 706.1"},"T":{"ha":682,"x_min":0,"x_max":682,"o":"m 4.9 586.9 l 4.9 729.0 l 676.8 729.0 l 676.8 586.9 l 435.1 586.9 l 435.1 0.0 l 247.1 0.0 l 247.1 586.9 l 4.9 586.9"},"U":{"ha":812,"x_min":0,"x_max":812,"o":"m 91.8 292.0 l 91.8 729.0 l 279.8 729.0 l 279.8 292.0 q 279.8 201.7 309.3 162.8 q 338.9 124.0 405.8 124.0 l 405.8 124.0 q 473.1 124.0 502.7 162.8 q 532.2 201.7 532.2 292.0 l 532.2 292.0 l 532.2 729.0 l 720.2 729.0 l 720.2 292.0 q 720.2 137.2 642.6 61.5 q 564.9 -14.2 405.8 -14.2 l 405.8 -14.2 q 247.1 -14.2 169.4 61.5 q 91.8 137.2 91.8 292.0 l 91.8 292.0"},"V":{"ha":774,"x_min":0,"x_max":774,"o":"m 274.9 0.0 l 4.9 729.0 l 193.8 729.0 l 387.2 190.9 l 580.1 729.0 l 769.0 729.0 l 499.0 0.0 l 274.9 0.0"},"W":{"ha":1103,"x_min":0,"x_max":1103,"o":"m 203.1 0.0 l 29.8 729.0 l 210.0 729.0 l 335.9 199.2 l 460.9 729.0 l 642.1 729.0 l 767.1 199.2 l 893.1 729.0 l 1071.8 729.0 l 899.9 0.0 l 683.1 0.0 l 550.8 554.2 l 419.9 0.0 l 203.1 0.0"},"X":{"ha":771,"x_min":0,"x_max":771,"o":"m 741.2 729.0 l 498.0 372.1 l 751.0 0.0 l 555.2 0.0 l 384.8 249.0 l 215.8 0.0 l 19.0 0.0 l 272.0 372.1 l 28.8 729.0 l 225.1 729.0 l 384.8 494.1 l 543.9 729.0 l 741.2 729.0"},"Y":{"ha":724,"x_min":0,"x_max":724,"o":"m 268.1 307.1 l -9.8 729.0 l 195.8 729.0 l 361.8 469.2 l 527.8 729.0 l 733.9 729.0 l 456.1 307.1 l 456.1 0.0 l 268.1 0.0 l 268.1 307.1"},"Z":{"ha":725,"x_min":0,"x_max":725,"o":"m 56.2 586.9 l 56.2 729.0 l 668.9 729.0 l 668.9 615.2 l 277.8 142.1 l 680.2 142.1 l 680.2 0.0 l 44.9 0.0 l 44.9 113.8 l 436.0 586.9 l 56.2 586.9"},"a":{"ha":675,"x_min":0,"x_max":675,"o":"m 419.9 246.1 l 329.1 246.1 q 274.4 246.1 246.8 227.5 q 219.2 209.0 219.2 172.9 l 219.2 172.9 q 219.2 139.6 241.5 120.8 q 263.7 102.1 303.2 102.1 l 303.2 102.1 q 352.5 102.1 386.2 137.5 q 419.9 172.9 419.9 226.1 l 419.9 226.1 l 419.9 246.1 m 596.2 312.0 l 596.2 312.0 l 596.2 0.0 l 419.9 0.0 l 419.9 81.1 q 384.8 31.3 340.8 8.5 q 296.9 -14.2 233.9 -14.2 l 233.9 -14.2 q 148.9 -14.2 95.9 35.4 q 43.0 85.0 43.0 164.1 l 43.0 164.1 q 43.0 260.3 109.1 305.2 q 175.3 350.1 316.9 350.1 l 316.9 350.1 l 419.9 350.1 l 419.9 363.8 q 419.9 405.3 387.2 424.6 q 354.5 443.8 285.2 443.8 l 285.2 443.8 q 229.0 443.8 180.7 432.6 q 132.3 421.4 90.8 398.9 l 90.8 398.9 l 90.8 532.2 q 147.0 545.9 203.6 553.0 q 260.3 560.1 316.9 560.1 l 316.9 560.1 q 464.8 560.1 530.5 501.7 q 596.2 443.4 596.2 312.0"},"b":{"ha":716,"x_min":0,"x_max":716,"o":"m 375.0 112.8 l 375.0 112.8 q 431.2 112.8 460.7 153.8 q 490.2 194.8 490.2 272.9 l 490.2 272.9 q 490.2 351.1 460.7 392.1 q 431.2 433.1 375.0 433.1 l 375.0 433.1 q 318.8 433.1 288.8 391.8 q 258.8 350.6 258.8 272.9 l 258.8 272.9 q 258.8 195.3 288.8 154.1 q 318.8 112.8 375.0 112.8 m 258.8 759.8 l 258.8 466.8 q 294.9 514.6 338.9 537.4 q 382.8 560.1 439.9 560.1 l 439.9 560.1 q 541.0 560.1 606.0 479.7 q 670.9 399.4 670.9 272.9 l 670.9 272.9 q 670.9 146.5 606.0 66.2 q 541.0 -14.2 439.9 -14.2 l 439.9 -14.2 q 382.8 -14.2 338.9 8.5 q 294.9 31.3 258.8 79.1 l 258.8 79.1 l 258.8 0.0 l 84.0 0.0 l 84.0 759.8 l 258.8 759.8"},"c":{"ha":593,"x_min":0,"x_max":593,"o":"m 525.9 529.8 l 525.9 529.8 l 525.9 387.2 q 490.2 411.6 454.3 423.3 q 418.5 435.1 379.9 435.1 l 379.9 435.1 q 306.6 435.1 265.9 392.3 q 225.1 349.6 225.1 272.9 l 225.1 272.9 q 225.1 196.3 265.9 153.6 q 306.6 110.8 379.9 110.8 l 379.9 110.8 q 420.9 110.8 457.8 123.0 q 494.6 135.3 525.9 159.2 l 525.9 159.2 l 525.9 16.1 q 484.9 1.0 442.6 -6.6 q 400.4 -14.2 357.9 -14.2 l 357.9 -14.2 q 210.0 -14.2 126.5 61.8 q 43.0 137.7 43.0 272.9 l 43.0 272.9 q 43.0 408.2 126.5 484.1 q 210.0 560.1 357.9 560.1 l 357.9 560.1 q 400.9 560.1 442.6 552.5 q 484.4 544.9 525.9 529.8"},"d":{"ha":716,"x_min":0,"x_max":716,"o":"m 456.1 466.8 l 456.1 466.8 l 456.1 759.8 l 631.8 759.8 l 631.8 0.0 l 456.1 0.0 l 456.1 79.1 q 419.9 30.8 376.5 8.3 q 333.0 -14.2 275.9 -14.2 l 275.9 -14.2 q 174.8 -14.2 109.9 66.2 q 44.9 146.5 44.9 272.9 l 44.9 272.9 q 44.9 399.4 109.9 479.7 q 174.8 560.1 275.9 560.1 l 275.9 560.1 q 332.5 560.1 376.2 537.4 q 419.9 514.6 456.1 466.8 m 340.8 112.8 l 340.8 112.8 q 397.0 112.8 426.5 153.8 q 456.1 194.8 456.1 272.9 l 456.1 272.9 q 456.1 351.1 426.5 392.1 q 397.0 433.1 340.8 433.1 l 340.8 433.1 q 285.2 433.1 255.6 392.1 q 226.1 351.1 226.1 272.9 l 226.1 272.9 q 226.1 194.8 255.6 153.8 q 285.2 112.8 340.8 112.8"},"e":{"ha":678,"x_min":0,"x_max":678,"o":"m 629.9 274.9 l 629.9 274.9 l 629.9 225.1 l 221.2 225.1 q 227.5 163.6 265.6 132.8 q 303.7 102.1 372.1 102.1 l 372.1 102.1 q 427.2 102.1 485.1 118.4 q 543.0 134.8 604.0 168.0 l 604.0 168.0 l 604.0 33.2 q 542.0 9.8 480.0 -2.2 q 418.0 -14.2 356.0 -14.2 l 356.0 -14.2 q 207.5 -14.2 125.2 61.3 q 43.0 136.7 43.0 272.9 l 43.0 272.9 q 43.0 406.7 123.8 483.4 q 204.6 560.1 346.2 560.1 l 346.2 560.1 q 475.1 560.1 552.5 482.4 q 629.9 404.8 629.9 274.9 m 223.1 333.0 l 450.2 333.0 q 450.2 382.8 421.1 413.3 q 392.1 443.8 345.2 443.8 l 345.2 443.8 q 294.4 443.8 262.7 415.3 q 231.0 386.7 223.1 333.0 l 223.1 333.0"},"f":{"ha":435,"x_min":0,"x_max":435,"o":"m 310.1 759.8 l 443.8 759.8 l 443.8 645.0 l 347.2 645.0 q 310.1 645.0 295.4 631.6 q 280.8 618.2 280.8 585.0 l 280.8 585.0 l 280.8 546.9 l 430.2 546.9 l 430.2 421.9 l 280.8 421.9 l 280.8 0.0 l 106.0 0.0 l 106.0 421.9 l 19.0 421.9 l 19.0 546.9 l 106.0 546.9 l 106.0 585.0 q 106.0 674.3 155.8 717.0 q 205.6 759.8 310.1 759.8 l 310.1 759.8"},"g":{"ha":716,"x_min":0,"x_max":716,"o":"m 456.1 55.2 l 456.1 92.8 q 419.9 44.9 376.5 22.5 q 333.0 0.0 275.9 0.0 l 275.9 0.0 q 175.8 0.0 110.4 78.9 q 44.9 157.7 44.9 279.8 l 44.9 279.8 q 44.9 402.3 110.4 480.7 q 175.8 559.1 275.9 559.1 l 275.9 559.1 q 333.0 559.1 376.5 536.6 q 419.9 514.2 456.1 465.8 l 456.1 465.8 l 456.1 546.9 l 631.8 546.9 l 631.8 55.2 q 631.8 -76.7 548.6 -146.2 q 465.3 -215.8 307.1 -215.8 l 307.1 -215.8 q 255.9 -215.8 208.0 -208.0 q 160.2 -200.2 111.8 -184.1 l 111.8 -184.1 l 111.8 -47.9 q 157.7 -74.2 201.7 -87.2 q 245.6 -100.1 290.0 -100.1 l 290.0 -100.1 q 376.0 -100.1 416.0 -62.5 q 456.1 -24.9 456.1 55.2 l 456.1 55.2 m 340.8 433.1 l 340.8 433.1 q 286.6 433.1 256.3 393.1 q 226.1 353.0 226.1 279.8 l 226.1 279.8 q 226.1 204.6 255.4 165.8 q 284.7 127.0 340.8 127.0 l 340.8 127.0 q 395.5 127.0 425.8 167.0 q 456.1 207.0 456.1 279.8 l 456.1 279.8 q 456.1 353.0 425.8 393.1 q 395.5 433.1 340.8 433.1"},"h":{"ha":712,"x_min":0,"x_max":712,"o":"m 633.8 333.0 l 633.8 333.0 l 633.8 0.0 l 458.0 0.0 l 458.0 54.2 l 458.0 253.9 q 458.0 325.7 454.8 352.5 q 451.7 379.4 443.8 392.1 l 443.8 392.1 q 433.6 409.2 416.0 418.7 q 398.4 428.2 376.0 428.2 l 376.0 428.2 q 321.3 428.2 290.0 386.0 q 258.8 343.8 258.8 269.0 l 258.8 269.0 l 258.8 0.0 l 84.0 0.0 l 84.0 759.8 l 258.8 759.8 l 258.8 466.8 q 298.3 514.6 342.8 537.4 q 387.2 560.1 440.9 560.1 l 440.9 560.1 q 535.6 560.1 584.7 502.0 q 633.8 443.8 633.8 333.0"},"i":{"ha":343,"x_min":0,"x_max":343,"o":"m 84.0 0.0 l 84.0 546.9 l 258.8 546.9 l 258.8 0.0 l 84.0 0.0 m 84.0 617.2 l 84.0 759.8 l 258.8 759.8 l 258.8 617.2 l 84.0 617.2"},"j":{"ha":343,"x_min":0,"x_max":343,"o":"m 84.0 9.8 l 84.0 546.9 l 258.8 546.9 l 258.8 9.8 q 258.8 -100.1 206.1 -158.0 q 153.3 -215.8 53.2 -215.8 l 53.2 -215.8 l -33.2 -215.8 l -33.2 -101.1 l -2.9 -101.1 q 46.9 -101.1 65.4 -78.6 q 84.0 -56.2 84.0 9.8 l 84.0 9.8 m 84.0 617.2 l 84.0 759.8 l 258.8 759.8 l 258.8 617.2 l 84.0 617.2"},"k":{"ha":665,"x_min":0,"x_max":665,"o":"m 84.0 0.0 l 84.0 759.8 l 258.8 759.8 l 258.8 346.2 l 460.0 546.9 l 663.1 546.9 l 396.0 295.9 l 684.1 0.0 l 472.2 0.0 l 258.8 228.0 l 258.8 0.0 l 84.0 0.0"},"l":{"ha":343,"x_min":0,"x_max":343,"o":"m 84.0 0.0 l 84.0 759.8 l 258.8 759.8 l 258.8 0.0 l 84.0 0.0"},"m":{"ha":1042,"x_min":0,"x_max":1042,"o":"m 590.8 456.1 l 590.8 456.1 q 624.0 506.8 669.7 533.4 q 715.3 560.1 770.0 560.1 l 770.0 560.1 q 864.3 560.1 913.6 502.0 q 962.9 443.8 962.9 333.0 l 962.9 333.0 l 962.9 0.0 l 787.1 0.0 l 787.1 285.2 q 787.6 291.5 787.8 298.3 q 788.1 305.2 788.1 317.9 l 788.1 317.9 q 788.1 376.0 771.0 402.1 q 753.9 428.2 715.8 428.2 l 715.8 428.2 q 666.0 428.2 638.9 387.2 q 611.8 346.2 610.8 268.6 l 610.8 268.6 l 610.8 0.0 l 435.1 0.0 l 435.1 285.2 q 435.1 376.0 419.4 402.1 q 403.8 428.2 363.8 428.2 l 363.8 428.2 q 313.5 428.2 286.1 387.0 q 258.8 345.7 258.8 269.0 l 258.8 269.0 l 258.8 0.0 l 83.0 0.0 l 83.0 546.9 l 258.8 546.9 l 258.8 466.8 q 291.0 513.2 332.8 536.6 q 374.5 560.1 424.8 560.1 l 424.8 560.1 q 481.4 560.1 524.9 532.7 q 568.4 505.4 590.8 456.1"},"n":{"ha":712,"x_min":0,"x_max":712,"o":"m 633.8 333.0 l 633.8 333.0 l 633.8 0.0 l 458.0 0.0 l 458.0 54.2 l 458.0 254.9 q 458.0 325.7 454.8 352.5 q 451.7 379.4 443.8 392.1 l 443.8 392.1 q 433.6 409.2 416.0 418.7 q 398.4 428.2 376.0 428.2 l 376.0 428.2 q 321.3 428.2 290.0 386.0 q 258.8 343.8 258.8 269.0 l 258.8 269.0 l 258.8 0.0 l 84.0 0.0 l 84.0 546.9 l 258.8 546.9 l 258.8 466.8 q 298.3 514.6 342.8 537.4 q 387.2 560.1 440.9 560.1 l 440.9 560.1 q 535.6 560.1 584.7 502.0 q 633.8 443.8 633.8 333.0"},"o":{"ha":687,"x_min":0,"x_max":687,"o":"m 344.2 435.1 l 344.2 435.1 q 286.1 435.1 255.6 393.3 q 225.1 351.6 225.1 272.9 l 225.1 272.9 q 225.1 194.3 255.6 152.6 q 286.1 110.8 344.2 110.8 l 344.2 110.8 q 401.4 110.8 431.6 152.6 q 461.9 194.3 461.9 272.9 l 461.9 272.9 q 461.9 351.6 431.6 393.3 q 401.4 435.1 344.2 435.1 m 344.2 560.1 l 344.2 560.1 q 485.4 560.1 564.7 483.9 q 644.0 407.7 644.0 272.9 l 644.0 272.9 q 644.0 138.2 564.7 62.0 q 485.4 -14.2 344.2 -14.2 l 344.2 -14.2 q 202.6 -14.2 122.8 62.0 q 43.0 138.2 43.0 272.9 l 43.0 272.9 q 43.0 407.7 122.8 483.9 q 202.6 560.1 344.2 560.1"},"p":{"ha":716,"x_min":0,"x_max":716,"o":"m 258.8 79.1 l 258.8 79.1 l 258.8 -208.0 l 84.0 -208.0 l 84.0 546.9 l 258.8 546.9 l 258.8 466.8 q 294.9 514.6 338.9 537.4 q 382.8 560.1 439.9 560.1 l 439.9 560.1 q 541.0 560.1 606.0 479.7 q 670.9 399.4 670.9 272.9 l 670.9 272.9 q 670.9 146.5 606.0 66.2 q 541.0 -14.2 439.9 -14.2 l 439.9 -14.2 q 382.8 -14.2 338.9 8.5 q 294.9 31.3 258.8 79.1 m 375.0 433.1 l 375.0 433.1 q 318.8 433.1 288.8 391.8 q 258.8 350.6 258.8 272.9 l 258.8 272.9 q 258.8 195.3 288.8 154.1 q 318.8 112.8 375.0 112.8 l 375.0 112.8 q 431.2 112.8 460.7 153.8 q 490.2 194.8 490.2 272.9 l 490.2 272.9 q 490.2 351.1 460.7 392.1 q 431.2 433.1 375.0 433.1"},"q":{"ha":716,"x_min":0,"x_max":716,"o":"m 340.8 433.1 l 340.8 433.1 q 285.2 433.1 255.6 392.1 q 226.1 351.1 226.1 272.9 l 226.1 272.9 q 226.1 194.8 255.6 153.8 q 285.2 112.8 340.8 112.8 l 340.8 112.8 q 397.0 112.8 426.5 153.8 q 456.1 194.8 456.1 272.9 l 456.1 272.9 q 456.1 351.1 426.5 392.1 q 397.0 433.1 340.8 433.1 m 456.1 -208.0 l 456.1 79.1 q 419.9 30.8 376.5 8.3 q 333.0 -14.2 275.9 -14.2 l 275.9 -14.2 q 174.8 -14.2 109.9 66.2 q 44.9 146.5 44.9 272.9 l 44.9 272.9 q 44.9 399.4 109.9 479.2 q 174.8 559.1 275.9 559.1 l 275.9 559.1 q 333.0 559.1 376.5 536.6 q 419.9 514.2 456.1 465.8 l 456.1 465.8 l 456.1 546.9 l 631.8 546.9 l 631.8 -208.0 l 456.1 -208.0"},"r":{"ha":493,"x_min":0,"x_max":493,"o":"m 489.7 556.2 l 490.2 397.9 q 467.3 408.7 444.6 413.8 q 421.9 418.9 398.9 418.9 l 398.9 418.9 q 331.5 418.9 295.2 375.7 q 258.8 332.5 258.8 252.0 l 258.8 252.0 l 258.8 0.0 l 84.0 0.0 l 84.0 546.9 l 258.8 546.9 l 258.8 457.0 q 292.5 510.7 336.2 535.4 q 379.9 560.1 440.9 560.1 l 440.9 560.1 q 449.7 560.1 460.0 559.3 q 470.2 558.6 489.7 556.2 l 489.7 556.2"},"s":{"ha":595,"x_min":0,"x_max":595,"o":"m 511.2 529.8 l 511.2 529.8 l 511.2 397.0 q 455.1 420.4 402.8 432.1 q 350.6 443.8 304.2 443.8 l 304.2 443.8 q 254.4 443.8 230.2 431.4 q 206.1 418.9 206.1 393.1 l 206.1 393.1 q 206.1 372.1 224.4 360.8 q 242.7 349.6 290.0 344.2 l 290.0 344.2 l 320.8 339.8 q 455.1 322.8 501.5 283.7 q 547.9 244.6 547.9 161.1 l 547.9 161.1 q 547.9 73.7 483.4 29.8 q 418.9 -14.2 291.0 -14.2 l 291.0 -14.2 q 236.8 -14.2 179.0 -5.6 q 121.1 2.9 60.1 20.0 l 60.1 20.0 l 60.1 152.8 q 112.3 127.4 167.2 114.7 q 222.2 102.1 278.8 102.1 l 278.8 102.1 q 330.1 102.1 356.0 116.2 q 381.8 130.4 381.8 158.2 l 381.8 158.2 q 381.8 181.6 364.0 193.1 q 346.2 204.6 293.0 210.9 l 293.0 210.9 l 262.2 214.8 q 145.5 229.5 98.6 269.0 q 51.8 308.6 51.8 389.2 l 51.8 389.2 q 51.8 476.1 111.3 518.1 q 170.9 560.1 293.9 560.1 l 293.9 560.1 q 342.3 560.1 395.5 552.7 q 448.7 545.4 511.2 529.8"},"t":{"ha":478,"x_min":0,"x_max":478,"o":"m 100.1 702.1 l 274.9 702.1 l 274.9 546.9 l 455.1 546.9 l 455.1 421.9 l 274.9 421.9 l 274.9 189.9 q 274.9 151.9 290.0 138.4 q 305.2 125.0 350.1 125.0 l 350.1 125.0 l 439.9 125.0 l 439.9 0.0 l 290.0 0.0 q 186.5 0.0 143.3 43.2 q 100.1 86.4 100.1 189.9 l 100.1 189.9 l 100.1 421.9 l 13.2 421.9 l 13.2 546.9 l 100.1 546.9 l 100.1 702.1"},"u":{"ha":712,"x_min":0,"x_max":712,"o":"m 78.1 212.9 l 78.1 212.9 l 78.1 546.9 l 253.9 546.9 l 253.9 492.2 q 253.9 447.8 253.4 380.6 q 252.9 313.5 252.9 291.0 l 252.9 291.0 q 252.9 225.1 256.3 196.0 q 259.8 167.0 268.1 153.8 l 268.1 153.8 q 278.8 136.7 296.1 127.4 q 313.5 118.2 335.9 118.2 l 335.9 118.2 q 390.6 118.2 421.9 160.2 q 453.1 202.1 453.1 276.9 l 453.1 276.9 l 453.1 546.9 l 627.9 546.9 l 627.9 0.0 l 453.1 0.0 l 453.1 79.1 q 413.6 31.3 369.4 8.5 q 325.2 -14.2 272.0 -14.2 l 272.0 -14.2 q 177.2 -14.2 127.7 43.9 q 78.1 102.1 78.1 212.9"},"v":{"ha":652,"x_min":0,"x_max":652,"o":"m 230.0 0.0 l 15.1 546.9 l 189.9 546.9 l 326.2 168.9 l 461.9 546.9 l 637.2 546.9 l 421.9 0.0 l 230.0 0.0"},"w":{"ha":924,"x_min":0,"x_max":924,"o":"m 179.2 0.0 l 35.2 546.9 l 205.1 546.9 l 296.9 169.9 l 389.2 546.9 l 535.2 546.9 l 627.0 173.8 l 719.2 546.9 l 889.2 546.9 l 745.1 0.0 l 554.2 0.0 l 461.9 376.0 l 370.1 0.0 l 179.2 0.0"},"x":{"ha":645,"x_min":0,"x_max":645,"o":"m 15.1 0.0 l 222.2 279.8 l 24.9 546.9 l 210.0 546.9 l 321.8 384.8 l 435.1 546.9 l 620.1 546.9 l 422.9 280.8 l 629.9 0.0 l 444.8 0.0 l 321.8 172.9 l 200.2 0.0 l 15.1 0.0"},"y":{"ha":652,"x_min":0,"x_max":652,"o":"m 255.9 -21.0 l 12.2 546.9 l 187.0 546.9 l 334.0 175.8 l 459.0 546.9 l 633.8 546.9 l 403.8 -51.8 q 369.1 -143.1 323.0 -179.4 q 276.9 -215.8 201.2 -215.8 l 201.2 -215.8 l 100.1 -215.8 l 100.1 -101.1 l 154.8 -101.1 q 199.2 -101.1 219.5 -86.9 q 239.7 -72.8 251.0 -36.1 l 251.0 -36.1 l 255.9 -21.0"},"z":{"ha":582,"x_min":0,"x_max":582,"o":"m 57.1 421.9 l 57.1 546.9 l 534.2 546.9 l 534.2 424.8 l 246.1 125.0 l 534.2 125.0 l 534.2 0.0 l 44.9 0.0 l 44.9 122.1 l 333.0 421.9 l 57.1 421.9"},".":{"ha":380,"x_min":0,"x_max":380,"o":"m 102.1 0.0 l 102.1 189.0 l 277.8 189.0 l 277.8 0.0 l 102.1 0.0"},",":{"ha":380,"x_min":0,"x_max":380,"o":"m 102.1 40.0 l 102.1 189.0 l 277.8 189.0 l 277.8 40.0 l 157.2 -142.1 l 53.2 -142.1 l 102.1 40.0"},"!":{"ha":456,"x_min":0,"x_max":456,"o":"m 140.1 449.2 l 140.1 729.0 l 315.9 729.0 l 315.9 449.2 l 291.0 245.1 l 165.0 245.1 l 140.1 449.2 m 140.1 0.0 l 140.1 173.8 l 315.9 173.8 l 315.9 0.0 l 140.1 0.0"},"?":{"ha":580,"x_min":0,"x_max":580,"o":"m 346.2 268.1 l 346.2 246.1 l 169.9 246.1 l 169.9 270.0 q 169.9 310.1 186.0 341.1 q 202.1 372.1 253.9 419.9 l 253.9 419.9 l 285.2 448.2 q 313.0 473.6 325.9 496.1 q 338.9 518.6 338.9 541.0 l 338.9 541.0 q 338.9 575.2 315.4 594.5 q 292.0 613.8 250.0 613.8 l 250.0 613.8 q 210.4 613.8 164.6 597.4 q 118.7 581.1 68.8 548.8 l 68.8 548.8 l 68.8 702.1 q 127.9 722.7 176.8 732.4 q 225.6 742.2 271.0 742.2 l 271.0 742.2 q 390.1 742.2 452.6 693.6 q 515.1 645.0 515.1 551.8 l 515.1 551.8 q 515.1 503.9 496.1 466.1 q 477.1 428.2 431.2 384.8 l 431.2 384.8 l 399.9 356.9 q 366.7 326.7 356.4 308.3 q 346.2 290.0 346.2 268.1 l 346.2 268.1 m 169.9 0.0 l 169.9 173.8 l 346.2 173.8 l 346.2 0.0 l 169.9 0.0"},"-":{"ha":415,"x_min":0,"x_max":415,"o":"m 54.2 216.8 l 54.2 358.9 l 360.8 358.9 l 360.8 216.8 l 54.2 216.8"},":":{"ha":400,"x_min":0,"x_max":400,"o":"m 111.8 357.9 l 111.8 546.9 l 288.1 546.9 l 288.1 357.9 l 111.8 357.9 m 111.8 0.0 l 111.8 189.0 l 288.1 189.0 l 288.1 0.0 l 111.8 0.0"}," ":{"ha":348,"x_min":0,"x_max":348,"o":""}}}
